<?xml version="1.0" encoding="UTF-8"?>
<svg width="19px" height="19px" viewBox="0 0 19 19" version="1.1" xmlns="http://www.w3.org/2000/svg" xmlns:xlink="http://www.w3.org/1999/xlink">
    <title>icon-colour-black</title>
    <g id="Page-1" stroke="none" stroke-width="1" fill="none" fill-rule="evenodd">
        <g id="Artboard" transform="translate(-26.000000, -23.000000)">
            <g id="icon-colour-black" transform="translate(26.499700, 24.192300)">
                <path d="M11.0558,6.6945 C10.8928,7.8215 10.3668,8.8295 9.5988,9.5985 C8.8288,10.3665 7.8218,10.8925 6.6928,11.0555 C6.4508,11.0905 6.2028,11.1085 5.9508,11.1085 L5.8988,11.1085 L5.8988,11.0575 C5.8988,8.2085 8.2088,5.8985 11.0578,5.8985 L11.1088,5.8985 L11.1088,5.9525 C11.1088,6.2035 11.0918,6.4525 11.0558,6.6945" id="Fill-1" fill="#1D1D1B"></path>
                <path d="M11.0558,6.6945 C10.8928,7.8215 10.3668,8.8295 9.5988,9.5985 C8.8288,10.3665 7.8218,10.8925 6.6928,11.0555 C6.4508,11.0905 6.2028,11.1085 5.9508,11.1085 L5.8988,11.1085 L5.8988,11.0575 C5.8988,8.2085 8.2088,5.8985 11.0578,5.8985 L11.1088,5.8985 L11.1088,5.9525 C11.1088,6.2035 11.0918,6.4525 11.0558,6.6945 Z" id="Stroke-3" stroke="#1D1D1B" stroke-width="0.75"></path>
                <path d="M5.631,11.377 C2.517,11.347 -8.8817842e-15,8.81 -8.8817842e-15,5.689 C-8.8817842e-15,2.547 2.548,-3.73034936e-14 5.688,-3.73034936e-14 C8.81,-3.73034936e-14 11.345,2.515 11.377,5.631 L11.377,5.689 C11.377,5.967 11.358,6.241 11.319,6.508 C11.139,7.751 10.559,8.863 9.711,9.711 C8.862,10.558 7.751,11.138 6.507,11.318 C6.24,11.357 5.966,11.377 5.688,11.377 L5.631,11.377 Z M5.631,11.377 L5.631,11.32 C5.631,8.178 8.178,5.631 11.32,5.631 L11.377,5.631 C14.491,5.661 17.008,8.198 17.008,11.32 C17.008,11.598 16.989,11.872 16.949,12.139 C16.77,13.383 16.189,14.494 15.342,15.341 C14.495,16.189 13.382,16.771 12.138,16.949 C11.871,16.988 11.598,17.008 11.32,17.008 C8.198,17.008 5.661,14.492 5.631,11.377 Z M9.711,9.711 L15.342,15.341 L9.711,9.711 Z M6.507,11.318 L12.138,16.949 L6.507,11.318 Z M11.317,6.506 L11.319,6.508 L16.949,12.139 L11.317,6.506 Z" id="Stroke-5" stroke="#1D1D1B" stroke-linecap="round" stroke-linejoin="round"></path>
            </g>
        </g>
    </g>
</svg>