<?xml version="1.0" encoding="UTF-8"?>
<svg width="12px" height="12px" viewBox="0 0 12 12" version="1.1" xmlns="http://www.w3.org/2000/svg" xmlns:xlink="http://www.w3.org/1999/xlink">
    <title>icon-leaf</title>
    <defs>
        <polygon id="path-1" points="-1.66533454e-16 0 11.6684114 0 11.6684114 11.3383558 -1.66533454e-16 11.3383558"></polygon>
    </defs>
    <g id="Page-1" stroke="none" stroke-width="1" fill="none" fill-rule="evenodd">
        <g id="Artboard" transform="translate(-71.000000, -12.000000)">
            <g id="icon-leaf" transform="translate(71.000000, 12.000000)">
                <mask id="mask-2" fill="white">
                    <use xlink:href="#path-1"></use>
                </mask>
                <g id="Clip-2"></g>
                <path d="M0.583,11.3384558 C0.732,11.3384558 0.881,11.2834558 0.995,11.1724558 L2.775,9.44345583 C3.275,9.68145583 4.169,10.0174558 5.261,10.0174558 C6.422,10.0174558 7.798,9.63345583 9.132,8.33745583 C12.249,5.30845583 11.628,0.741455829 11.6,0.548455829 C11.563,0.298455829 11.361,0.101455829 11.104,0.0664558289 C10.906,0.0394558289 6.205,-0.564544171 3.088,2.46445583 C0.502,4.97645583 1.443,7.63645583 1.951,8.64145583 L0.171,10.3704558 C-0.057,10.5924558 -0.057,10.9514558 0.171,11.1724558 C0.284,11.2834558 0.434,11.3384558 0.583,11.3384558 M3.912,3.26545583 C6.091,1.14945583 9.3,1.09145583 10.482,1.15245583 C10.544,2.30145583 10.485,5.42045583 8.307,7.53645583 C6.477,9.31445583 4.608,8.96245583 3.651,8.59145583 L6.215,6.10045583 C6.443,5.87845583 6.443,5.52045583 6.215,5.29845583 C5.988,5.07745583 5.618,5.07745583 5.39,5.29845583 L2.826,7.79045583 C2.445,6.85945583 2.083,5.04345583 3.912,3.26545583" id="Fill-1" fill="#FEFEFE" mask="url(#mask-2)"></path>
            </g>
        </g>
    </g>
</svg>