<?xml version="1.0" encoding="UTF-8"?>
<svg width="19px" height="19px" viewBox="0 0 19 19" version="1.1" xmlns="http://www.w3.org/2000/svg" xmlns:xlink="http://www.w3.org/1999/xlink">
    <title>icon-size-black</title>
    <g id="Page-1" stroke="none" stroke-width="1" fill="none" fill-rule="evenodd" stroke-linecap="round" stroke-linejoin="round">
        <g id="Artboard" transform="translate(-53.000000, -23.000000)" stroke="#1D1D1B">
            <g id="icon-size-black" transform="translate(54.234500, 24.192000)">
                <path d="M2.13162821e-14,17.008 L2.13162821e-14,1.95399252e-14 M2.13162821e-14,1.95399252e-14 L17.008,1.95399252e-14 M17.008,1.95399252e-14 L17.008,17.008 M17.008,17.008 L2.13162821e-14,17.008 M2.13162821e-14,8.504 L8.504,8.504 M8.504,8.504 L8.504,17.008 M2.13162821e-14,8.504 L2.551,8.504 M3.402,8.504 L3.402,3.402 M3.402,3.402 L13.606,3.402 M13.606,3.402 L13.606,17.008 M13.606,3.402 L8.504,8.504 M9.354,3.402 L4.252,8.504 M5.102,3.402 L3.402,5.102 M13.606,7.654 L8.504,12.756 M13.606,11.906 L8.504,17.008 M13.606,16.158 L12.756,17.008" id="Stroke-9"></path>
            </g>
        </g>
    </g>
</svg>