<?xml version="1.0" encoding="UTF-8"?>
<svg width="20px" height="20px" viewBox="0 0 20 20" version="1.1" xmlns="http://www.w3.org/2000/svg" xmlns:xlink="http://www.w3.org/1999/xlink">
    <title>range-hero-finish-icon</title>
    <g id="Page-1" stroke="none" stroke-width="1" fill="none" fill-rule="evenodd">
        <g id="range-hero-finish-icon" fill="#FFFFFF">
            <path d="M10.101,-0.0004 L10.101,4.9996 L8.6,4.9996 L8.6,1.4996 L1.6,1.4996 L1.6,8.4996 L5,8.4996 L5,9.9996 L0.101,9.9996 L0.101,-0.0004 L10.101,-0.0004 Z" id="Combined-Shape"></path>
            <path d="M14.11,4.9986 L14.11,14.9986 L4.11,14.9986 L4.11,4.9986 L14.11,4.9986 Z M12.61,6.4986 L5.61,6.4986 L5.61,13.4986 L12.61,13.4986 L12.61,6.4986 Z" id="Fill-17"></path>
            <polygon id="Fill-18" points="7.5283 14.7637 6.4663 13.7017 12.8143 7.3567 13.8753 8.4157"></polygon>
            <polygon id="Fill-19" points="5.3828 12.665 4.3218 11.604 10.7088 5.219 11.7698 6.278"></polygon>
            <polygon id="Fill-20" points="5.3711 8.4346 4.3101 7.3736 6.4671 5.2166 7.5271 6.2786"></polygon>
            <polygon id="Fill-21" points="11.7686 14.7646 10.7066 13.7036 12.8146 11.5976 13.8746 12.6596"></polygon>
            <path d="M19.101,9.9996 L19.101,20.0006 L9.101,20.0006 L9.101,9.9996 L19.101,9.9996 Z M17.6,11.4996 L10.6,11.4996 L10.6,18.4996 L17.6,18.4996 L17.6,11.4996 Z" id="Fill-23"></path>
            <polygon id="Fill-24" points="9.851 15.7156 18.351 15.7156 18.351 14.2156 9.851 14.2156"></polygon>
            <polygon id="Fill-25" points="13.351 19.2156 14.851 19.2156 14.851 10.7156 13.351 10.7156"></polygon>
        </g>
    </g>
</svg>