<?xml version="1.0" encoding="UTF-8"?>
<svg width="21px" height="20px" viewBox="0 0 21 20" version="1.1" xmlns="http://www.w3.org/2000/svg" xmlns:xlink="http://www.w3.org/1999/xlink">
    <title>range-hero-size-icon</title>
    <g id="Page-1" stroke="none" stroke-width="1" fill="none" fill-rule="evenodd">
        <g id="range-hero-size-icon">
            <path d="M0.179,20.0006 L20.18,20.0006 L20.18,-0.0004 L0.179,-0.0004 L0.179,20.0006 Z M1.68,18.4996 L18.68,18.4996 L18.68,1.4996 L1.68,1.4996 L1.68,18.4996 Z" id="Fill-1" fill="#FFFFFF"></path>
            <path d="M16.015,3.9936 L16.015,19.9936 L4.014,19.9936 L4.014,3.9936 L16.015,3.9936 Z M14.514,5.4946 L5.514,5.4946 L5.514,18.4946 L14.514,18.4946 L14.514,5.4946 Z" id="Fill-3" fill="#FFFFFF"></path>
            <polygon id="Fill-4" fill="#FFFFFF" points="5.3193 15.6279 4.2573 14.5669 14.6183 4.2069 15.6783 5.2689"></polygon>
            <polygon id="Fill-5" fill="#FFFFFF" points="5.2949 11.4092 4.2339 10.3482 10.3679 4.2162 11.4289 5.2752"></polygon>
            <polygon id="Fill-6" fill="#FFFFFF" points="5.2949 7.166 4.2339 6.105 6.1259 4.216 7.1869 5.275"></polygon>
            <polygon id="Fill-7" fill="#FFFFFF" points="4.3751 18.6927 5.4361 19.7527 15.7721 9.4177 14.7111 8.3567"></polygon>
            <polygon id="Fill-8" fill="#FFFFFF" points="12.8603 18.6936 13.9203 19.7536 15.7853 17.8906 14.7243 16.8286"></polygon>
            <polygon id="Fill-9" fill="#FFFFFF" points="8.5808 18.7305 9.6418 19.7905 15.7798 13.6515 14.7198 12.5915"></polygon>
            <polygon id="Stroke-11" stroke="#FFFFFF" points="0.93 19.2496 11.43 19.2496 11.43 8.7496 0.93 8.7496"></polygon>
            <path d="M12.18,7.9996 L12.18,20.0006 L0.179,20.0006 L0.179,7.9996 L12.18,7.9996 Z M10.68,9.5006 L1.68,9.5006 L1.68,18.5006 L10.68,18.5006 L10.68,9.5006 Z" id="Fill-13" fill="#FFFFFF"></path>
        </g>
    </g>
</svg>