<?xml version="1.0" encoding="UTF-8"?>
<svg width="20px" height="21px" viewBox="0 0 20 21" version="1.1" xmlns="http://www.w3.org/2000/svg" xmlns:xlink="http://www.w3.org/1999/xlink">
    <title>range-hero-colour-icon</title>
    <g id="Page-1" stroke="none" stroke-width="1" fill="none" fill-rule="evenodd">
        <g id="Group-44" fill="#FFFFFF" transform="translate(0.000000, 0.016600)">
            <path d="M13,6 C9.14,6 6,9.14 6,13 C6,16.859 9.14,20 13,20 C16.86,20 20,16.859 20,13 C20,9.14 16.86,6 13,6 M13,7.5 C16.033,7.5 18.5,9.967 18.5,13 C18.5,16.033 16.033,18.5 13,18.5 C9.967,18.5 7.5,16.033 7.5,13 C7.5,9.967 9.967,7.5 13,7.5" id="Fill-26"></path>
            <path d="M7,0 C3.14,0 0,3.14 0,7 C0,10.859 3.14,14 7,14 C10.86,14 14,10.859 14,7 C14,3.14 10.86,0 7,0 M7,1.5 C10.033,1.5 12.5,3.967 12.5,7 C12.5,10.032 10.033,12.5 7,12.5 C3.967,12.5 1.5,10.032 1.5,7 C1.5,3.967 3.967,1.5 7,1.5" id="Fill-28"></path>
            <polygon id="Fill-30" points="18.2705 15.0869 10.9925 7.8099 12.0525 6.7489 19.3315 14.0259"></polygon>
            <polygon id="Fill-32" points="17.999 10.5732 15.518 8.0922 16.578 7.0312 19.06 9.5122"></polygon>
            <polygon id="Fill-34" points="17.124 18.1836 7.718 8.7776 8.778 7.7166 18.185 17.1226"></polygon>
            <polygon id="Fill-36" points="9.5254 19.0703 6.8174 16.3623 7.8794 15.3013 10.5864 18.0093"></polygon>
            <polygon id="Fill-38" points="14.3799 19.6826 6.6509 11.9536 7.7119 10.8936 15.4409 18.6216"></polygon>
            <path d="M6.7559,13.2441 C6.7519,13.1631 6.7499,13.0821 6.7499,13.0001 C6.7499,9.5541 9.5539,6.7501 12.9999,6.7501 C13.0819,6.7501 13.1629,6.7521 13.2439,6.7561 C13.2479,6.8371 13.2499,6.9181 13.2499,7.0001 C13.2499,10.4461 10.4449,13.2501 6.9999,13.2501 C6.9179,13.2501 6.8369,13.2481 6.7559,13.2441" id="Fill-40"></path>
            <path d="M13,6 C9.14,6 6,9.14 6,13 C6,13.315 6.029,13.625 6.069,13.931 C6.375,13.971 6.684,14 7,14 C10.86,14 14,10.859 14,7 C14,6.684 13.972,6.375 13.931,6.068 C13.625,6.027 13.316,6 13,6 M12.475,7.524 C12.227,10.14 10.14,12.226 7.525,12.475 C7.774,9.859 9.861,7.772 12.475,7.524" id="Fill-42"></path>
        </g>
    </g>
</svg>