<?xml version="1.0" encoding="UTF-8"?>
<!DOCTYPE svg PUBLIC "-//W3C//DTD SVG 1.1//EN" "http://www.w3.org/Graphics/SVG/1.1/DTD/svg11.dtd">
<svg xmlns="http://www.w3.org/2000/svg" version="1.1" width="512px" height="512px" style="shape-rendering:geometricPrecision; text-rendering:geometricPrecision; image-rendering:optimizeQuality; fill-rule:evenodd; clip-rule:evenodd" xmlns:xlink="http://www.w3.org/1999/xlink">
<g><path style="opacity:0.95" fill="#000000" d="M 511.5,180.5 C 511.5,183.833 511.5,187.167 511.5,190.5C 510.069,192.437 508.402,194.27 506.5,196C 493.5,204.167 480.5,212.333 467.5,220.5C 480.163,229.167 493.163,237.334 506.5,245C 508.402,246.73 510.069,248.563 511.5,250.5C 511.5,253.833 511.5,257.167 511.5,260.5C 510.069,262.437 508.402,264.27 506.5,266C 493.163,273.666 480.163,281.833 467.5,290.5C 480.5,298.667 493.5,306.833 506.5,315C 508.402,316.73 510.069,318.563 511.5,320.5C 511.5,323.833 511.5,327.167 511.5,330.5C 508.836,334.016 505.503,336.85 501.5,339C 420.833,388.667 340.167,438.333 259.5,488C 256.833,488.667 254.167,488.667 251.5,488C 170.833,438.333 90.1667,388.667 9.5,339C 5.49725,336.85 2.16392,334.016 -0.5,330.5C -0.5,327.167 -0.5,323.833 -0.5,320.5C 0.93142,318.563 2.59809,316.73 4.5,315C 17.5,306.833 30.5,298.667 43.5,290.5C 30.837,281.833 17.837,273.666 4.5,266C 2.59809,264.27 0.93142,262.437 -0.5,260.5C -0.5,257.167 -0.5,253.833 -0.5,250.5C 0.93142,248.563 2.59809,246.73 4.5,245C 17.837,237.334 30.837,229.167 43.5,220.5C 30.5,212.333 17.5,204.167 4.5,196C 2.59809,194.27 0.93142,192.437 -0.5,190.5C -0.5,187.167 -0.5,183.833 -0.5,180.5C 2.16392,176.984 5.49725,174.15 9.5,172C 90.1667,122.333 170.833,72.6667 251.5,23C 254.167,22.3333 256.833,22.3333 259.5,23C 340.167,72.6667 420.833,122.333 501.5,172C 505.503,174.15 508.836,176.984 511.5,180.5 Z M 253.5,49.5 C 258.478,50.8199 263.145,52.9865 267.5,56C 337.335,99.0829 407.001,142.416 476.5,186C 402.833,231.5 329.167,277 255.5,322.5C 181.833,277 108.167,231.5 34.5,186C 107.564,140.475 180.564,94.975 253.5,49.5 Z M 65.5,235.5 C 66.8734,235.343 68.2068,235.51 69.5,236C 126.833,271.667 184.167,307.333 241.5,343C 245.786,345.976 250.453,348.143 255.5,349.5C 260.547,348.143 265.214,345.976 269.5,343C 326.833,307.333 384.167,271.667 441.5,236C 442.833,235.333 444.167,235.333 445.5,236C 455.707,242.265 465.707,248.765 475.5,255.5C 402.203,301.153 328.869,346.819 255.5,392.5C 182.632,347.135 109.632,301.969 36.5,257C 35.1667,256 35.1667,255 36.5,254C 46.5701,248.308 56.2367,242.141 65.5,235.5 Z M 65.5,305.5 C 70.4779,306.82 75.1446,308.987 79.5,312C 135.833,347 192.167,382 248.5,417C 255.404,419.61 261.737,418.61 267.5,414C 325.5,378 383.5,342 441.5,306C 443.635,305.365 445.635,305.699 447.5,307C 456.999,313.251 466.666,319.251 476.5,325C 403.13,371.016 329.463,416.516 255.5,461.5C 181.537,416.516 107.87,371.016 34.5,325C 45.2348,318.975 55.5681,312.475 65.5,305.5 Z"/></g>
</svg>
