<?xml version="1.0" encoding="UTF-8"?>
<svg width="10px" height="12px" viewBox="0 0 10 12" version="1.1" xmlns="http://www.w3.org/2000/svg" xmlns:xlink="http://www.w3.org/1999/xlink">
    <title>icon-cart-black</title>
    <g id="Page-1" stroke="none" stroke-width="1" fill="none" fill-rule="evenodd">
        <g id="Artboard" transform="translate(-134.000000, -68.000000)" fill="#1D1D1B">
            <g id="icon-cart-black" transform="translate(134.000000, 68.000000)">
                <path d="M0.317440698,2.70875 L4.4404407,4.42675 C4.5044407,4.45275 4.5714407,4.46675 4.6384407,4.46675 C4.7064407,4.46675 4.7734407,4.45275 4.8374407,4.42675 L8.9604407,2.70875 C9.1524407,2.62875 9.2774407,2.44075 9.2774407,2.23275 C9.2774407,2.02475 9.1524407,1.83775 8.9604407,1.75775 L4.8374407,0.03975 C4.7104407,-0.01325 4.5674407,-0.01325 4.4404407,0.03975 L0.317440698,1.75775 C0.125440698,1.83775 0.000440697835,2.02475 0.000440697835,2.23275 C0.000440697835,2.44075 0.125440698,2.62875 0.317440698,2.70875 L0.317440698,2.70875 Z M4.6384407,1.07375 L7.4224407,2.23275 L4.6384407,3.39275 L1.8554407,2.23275 L4.6384407,1.07375 Z" id="Fill-2"></path>
                <path d="M9.2375407,4.32535 C9.1275407,4.06235 8.8255407,3.93935 8.5635407,4.04835 L4.6385407,5.68335 L0.713540698,4.04835 C0.451540698,3.93935 0.150540698,4.06235 0.0395406978,4.32535 C-0.0694593022,4.58835 0.0545406978,4.89035 0.317540698,4.99935 L4.4405407,6.71735 C4.5035407,6.74335 4.5715407,6.75735 4.6385407,6.75735 C4.7065407,6.75735 4.7735407,6.74335 4.8365407,6.71735 L8.9605407,4.99935 C9.2225407,4.89035 9.3475407,4.58835 9.2375407,4.32535" id="Fill-4"></path>
                <path d="M9.2375407,6.61615 C9.1275407,6.35315 8.8255407,6.22915 8.5635407,6.33915 L4.6385407,7.97415 L0.713540698,6.33915 C0.451540698,6.22915 0.150540698,6.35315 0.0395406978,6.61615 C-0.0694593022,6.87915 0.0545406978,7.18115 0.317540698,7.29015 L4.4405407,9.00815 C4.5035407,9.03415 4.5715407,9.04815 4.6385407,9.04815 C4.7065407,9.04815 4.7735407,9.03415 4.8365407,9.00815 L8.9605407,7.29015 C9.2225407,7.18115 9.3475407,6.87915 9.2375407,6.61615" id="Fill-6"></path>
                <path d="M8.5636407,8.62945 L4.6386407,10.26445 L0.713640698,8.62945 C0.451640698,8.51945 0.150640698,8.64445 0.0396406978,8.90645 C-0.0693593022,9.16945 0.0546406978,9.47145 0.317640698,9.58045 L4.4406407,11.29845 C4.5036407,11.32445 4.5716407,11.33845 4.6386407,11.33845 C4.7066407,11.33845 4.7736407,11.32445 4.8366407,11.29845 L8.9606407,9.58045 C9.2226407,9.47145 9.3476407,9.16945 9.2376407,8.90645 C9.1276407,8.64445 8.8256407,8.51945 8.5636407,8.62945" id="Fill-8"></path>
            </g>
        </g>
    </g>
</svg>