<svg width="19" height="19" xmlns="http://www.w3.org/2000/svg"><g fill="none" fill-rule="evenodd"><path fill="#1D1D1B" d="M1 5.353h4.352V1.001H1z"/><path stroke="#1D1D1B" stroke-linejoin="round" d="M1 5.353h4.353V1H1z"/><path fill="#1D1D1B" d="M7.327 5.353h4.354V1H7.327z"/><path stroke="#1D1D1B" stroke-linejoin="round" d="M7.327 5.353h4.354V1H7.327z"/><path fill="#1D1D1B" d="M13.655 5.353h4.354V1h-4.354z"/><path stroke="#1D1D1B" stroke-linejoin="round" d="M13.655 5.353h4.354V1h-4.354z"/><path fill="#1D1D1B" d="M1 11.681h4.352V7.328H1z"/><path stroke="#1D1D1B" stroke-linejoin="round" d="M1 11.681h4.353V7.328H1z"/><path fill="#1D1D1B" d="M7.327 11.681h4.354V7.328H7.327z"/><path stroke="#1D1D1B" stroke-linejoin="round" d="M7.327 11.681h4.354V7.328H7.327z"/><path fill="#1D1D1B" d="M13.655 11.681h4.354V7.328h-4.354z"/><path stroke="#1D1D1B" stroke-linejoin="round" d="M13.655 11.681h4.354V7.328h-4.354z"/><path fill="#1D1D1B" d="M1 18.008h4.352v-4.352H1z"/><path stroke="#1D1D1B" stroke-linejoin="round" d="M1 18.008h4.353v-4.353H1z"/><path fill="#1D1D1B" d="M7.327 18.008h4.353v-4.352H7.327z"/><path stroke="#1D1D1B" stroke-linejoin="round" d="M7.327 18.008h4.354v-4.353H7.327z"/><path fill="#1D1D1B" d="M13.654 18.008h4.354v-4.352h-4.354z"/><path stroke="#1D1D1B" stroke-linejoin="round" d="M13.655 18.008h4.354v-4.353h-4.354z"/></g></svg>