<svg width="19" height="19" xmlns="http://www.w3.org/2000/svg"><g fill="none" fill-rule="evenodd"><path fill="#FFF" d="M1 5.353h4.352V1H1z"/><path stroke="#1D1D1B" stroke-linejoin="round" d="M1 5.353h4.353V1H1z"/><path fill="#FFF" d="M7.328 5.353h4.354V1H7.328z"/><path stroke="#1D1D1B" stroke-linejoin="round" d="M7.328 5.353h4.354V1H7.328z"/><path fill="#FFF" d="M13.655 5.353h4.354V1h-4.354z"/><path stroke="#1D1D1B" stroke-linejoin="round" d="M13.655 5.353h4.354V1h-4.354z"/><path fill="#FFF" d="M1 11.68h4.352V7.328H1z"/><path stroke="#1D1D1B" stroke-linejoin="round" d="M1 11.68h4.353V7.327H1z"/><path fill="#FFF" d="M7.328 11.68h4.354V7.327H7.328z"/><path stroke="#1D1D1B" stroke-linejoin="round" d="M7.328 11.68h4.354V7.327H7.328z"/><path fill="#FFF" d="M13.655 11.68h4.354V7.327h-4.354z"/><path stroke="#1D1D1B" stroke-linejoin="round" d="M13.655 11.68h4.354V7.327h-4.354z"/><path fill="#FFF" d="M1 18.009h4.352v-4.353H1z"/><path stroke="#1D1D1B" stroke-linejoin="round" d="M1 18.008h4.353v-4.353H1z"/><path fill="#FFF" d="M7.327 18.009h4.353v-4.353H7.327z"/><path stroke="#1D1D1B" stroke-linejoin="round" d="M7.328 18.008h4.354v-4.353H7.328z"/><path fill="#FFF" d="M13.654 18.009h4.354v-4.353h-4.354z"/><path stroke="#1D1D1B" stroke-linejoin="round" d="M13.655 18.008h4.354v-4.353h-4.354z"/></g></svg>