<?xml version="1.0" encoding="UTF-8"?>
<svg width="67px" height="67px" viewBox="0 0 67 67" version="1.1" xmlns="http://www.w3.org/2000/svg" xmlns:xlink="http://www.w3.org/1999/xlink">
    <title>Fill 16</title>
    <g id="Page-1" stroke="none" stroke-width="1" fill="none" fill-rule="evenodd">
        <g id="Artboard" transform="translate(-202.000000, -86.000000)" fill="#878786">
            <path d="M208.959751,146.224 L211.789751,109.42 L218.729751,109.42 L218.729751,116.112 C218.729751,117.959 220.225751,119.457 222.074751,119.457 C223.923751,119.457 225.420751,117.959 225.420751,116.112 L225.420751,109.42 L245.495751,109.42 L245.495751,116.112 C245.495751,117.959 246.991751,119.457 248.840751,119.457 C250.690751,119.457 252.186751,117.959 252.186751,116.112 L252.186751,109.42 L259.126751,109.42 L261.956751,146.224 L208.959751,146.224 Z M235.458751,92.691 C240.992751,92.691 245.495751,97.194 245.495751,102.728 L225.420751,102.728 C225.420751,97.194 229.922751,92.691 235.458751,92.691 L235.458751,92.691 Z M268.023751,151.844 C268.657751,151.159 268.978751,150.243 268.905751,149.313 L265.560751,105.818 C265.426751,104.075 263.972751,102.728 262.224751,102.728 L252.186751,102.728 C252.186751,93.505 244.681751,86 235.458751,86 C226.233751,86 218.729751,93.505 218.729751,102.728 L208.691751,102.728 C206.943751,102.728 205.489751,104.075 205.355751,105.818 L202.009751,149.313 C201.938751,150.243 202.257751,151.159 202.892751,151.844 C203.522751,152.527 204.414751,152.915 205.345751,152.915 L265.569751,152.915 C266.501751,152.915 267.393751,152.527 268.023751,151.844 L268.023751,151.844 Z" id="Fill-16"></path>
        </g>
    </g>
</svg>