<?xml version="1.0" encoding="UTF-8"?>
<!DOCTYPE svg PUBLIC "-//W3C//DTD SVG 1.1//EN" "http://www.w3.org/Graphics/SVG/1.1/DTD/svg11.dtd">
<svg xmlns="http://www.w3.org/2000/svg" version="1.1" width="512px" height="512px" style="shape-rendering:geometricPrecision; text-rendering:geometricPrecision; image-rendering:optimizeQuality; fill-rule:evenodd; clip-rule:evenodd" xmlns:xlink="http://www.w3.org/1999/xlink">
<g><path style="opacity:0.97" fill="#000000" d="M 92.5,50.5 C 201.167,50.3333 309.834,50.5 418.5,51C 441,56.1667 454.833,70 460,92.5C 460.667,201.167 460.667,309.833 460,418.5C 454.833,441 441,454.833 418.5,460C 309.833,460.667 201.167,460.667 92.5,460C 70,454.833 56.1667,441 51,418.5C 50.3333,309.833 50.3333,201.167 51,92.5C 56.3478,69.9861 70.1811,55.9861 92.5,50.5 Z M 97.5,71.5 C 202.834,71.3333 308.167,71.5 413.5,72C 427.786,75.2852 436.286,84.1186 439,98.5C 439.667,203.167 439.667,307.833 439,412.5C 436.286,426.881 427.786,435.715 413.5,439C 308.167,439.667 202.833,439.667 97.5,439C 83.2145,435.715 74.7145,426.881 72,412.5C 71.3333,307.833 71.3333,203.167 72,98.5C 74.8983,84.1042 83.3983,75.1042 97.5,71.5 Z"/></g>
<g><path style="opacity:0.935" fill="#000000" d="M 303.5,111.5 C 332.835,111.333 362.169,111.5 391.5,112C 394.196,112.69 396.363,114.19 398,116.5C 399.643,146.772 399.977,177.105 399,207.5C 395.703,214.276 390.537,216.443 383.5,214C 381.667,212.833 380.167,211.333 379,209.5C 377.715,189.551 377.048,169.551 377,149.5C 355.833,170.667 334.667,191.833 313.5,213C 303.909,217.4 297.909,214.4 295.5,204C 296.255,201.825 297.088,199.659 298,197.5C 319.167,176.333 340.333,155.167 361.5,134C 341.449,133.952 321.449,133.285 301.5,132C 295.66,127.476 294.493,121.976 298,115.5C 299.812,114.023 301.645,112.69 303.5,111.5 Z"/></g>
<g><path style="opacity:0.935" fill="#000000" d="M 121.5,295.5 C 127.869,295.932 131.702,299.266 133,305.5C 133.333,324.167 133.667,342.833 134,361.5C 155.167,340.333 176.333,319.167 197.5,298C 206.786,293.701 212.786,296.535 215.5,306.5C 214.82,308.889 213.986,311.222 213,313.5C 191.833,334.667 170.667,355.833 149.5,377C 169.551,377.048 189.551,377.715 209.5,379C 216.198,384.373 216.864,390.373 211.5,397C 210.167,397.667 208.833,398.333 207.5,399C 178.167,399.667 148.833,399.667 119.5,399C 116.804,398.31 114.637,396.81 113,394.5C 111.357,364.228 111.023,333.895 112,303.5C 113.593,298.808 116.76,296.142 121.5,295.5 Z"/></g>
</svg>
